<svg xmlns="http://www.w3.org/2000/svg" xmlns:xlink="http://www.w3.org/1999/xlink" version="1.1" x="0px" y="0px" viewBox="0 0 90 90" style="enable-background:new 0 0 90 90;" xml:space="preserve"><path d="M34.2,40.9H18c-3.3,0-6-2.7-6-6V18.7c0-3.3,2.7-6,6-6h16.3c3.3,0,6,2.7,6,6V35C40.2,38.3,37.5,40.9,34.2,40.9z M71.9,40.9  H55.6c-3.3,0-6-2.7-6-6V18.7c0-3.3,2.7-6,6-6h16.3c3.3,0,6,2.7,6,6V35C77.9,38.3,75.2,40.9,71.9,40.9z M34.4,77.6H18.1  c-3.3,0-6-2.7-6-6V55.4c0-3.3,2.7-6,6-6h16.3c3.3,0,6,2.7,6,6v16.3C40.3,74.9,37.6,77.6,34.4,77.6z M72,77.6H55.8c-3.3,0-6-2.7-6-6  V55.4c0-3.3,2.7-6,6-6H72c3.3,0,6,2.7,6,6v16.3C78,74.9,75.3,77.6,72,77.6z"></path></svg>