<svg xmlns="http://www.w3.org/2000/svg" xmlns:xlink="http://www.w3.org/1999/xlink" version="1.1" x="0px" y="0px" viewBox="0 0 100 100" enable-background="new 0 0 100 100" xml:space="preserve"><g><path d="M68.9,41.4h-0.7v-2.2c0-0.7-0.6-1.2-1.2-1.2c-0.7,0-1.2,0.6-1.2,1.2v3.4c0,0.7,0.6,1.2,1.2,1.2h1.9c0.7,0,1.2-0.6,1.2-1.2   C70.2,41.9,69.6,41.4,68.9,41.4z"></path><path d="M68.7,71.4h1.9c0.7,0,1.2-0.6,1.2-1.2c0-0.7-0.6-1.2-1.2-1.2h-0.7v-2.2c0-0.7-0.6-1.2-1.2-1.2c-0.7,0-1.2,0.6-1.2,1.2v3.4   C67.4,70.9,68,71.4,68.7,71.4z"></path><path d="M39.5,66.1h1.9c0.7,0,1.2-0.6,1.2-1.2c0-0.7-0.6-1.2-1.2-1.2h-0.7v-2.2c0-0.7-0.6-1.2-1.2-1.2s-1.2,0.6-1.2,1.2v3.4   C38.2,65.6,38.8,66.1,39.5,66.1z"></path><path d="M87.4,47.7c-3.5-14.1-15.9-24-30.4-24.5c-3.4-7-10.7-11.7-19-11.1c-5.2,0.4-10,2.7-13.4,6.7c-3.4,3.9-5.1,9-4.7,14.2   c0.2,2.9,1.1,5.7,2.5,8.2L10.4,55c-0.1,0.1-0.1,0.2-0.2,0.2c-0.6,0.8-0.7,1.9-0.5,3.1c0.2,1.3,0.9,2.5,1.9,3.4   c1,0.9,2.4,1.4,3.8,1.4c1.3,0,2.4-0.4,3-1.2l5.2-6c0.2,15.2,11,28.4,26,31.4l0,0c2.1,0.4,4.2,0.6,6.4,0.6   c16.7,0,30.6-12.6,32.2-29.2v0v0c0.1-1.1,0.2-2.1,0.2-3.2C88.4,52.9,88,50.3,87.4,47.7z M85.6,59.7c-0.8,6.1-3.5,11.5-7.3,15.8   c-0.5-0.2-1-0.5-1.5-0.7c-0.6-0.3-1-0.7-0.4-2.4c0.6-1.7,1.1-3.5,0.9-5.8c-0.4-3.8-3.9-6.8-7.8-6.8h-0.1c-3.9,0-7.4,3.1-7.8,6.8   c-0.2,2.3,0.3,4.1,0.9,5.8c0.6,1.7,0.2,2.1-0.4,2.4c-0.5,0.3-1,0.5-1.5,0.8c-1.9,0.9-4.2,2-5.4,3.9c-1,1.5-1,3.2-1,4.6l0,1.3   c-0.9-0.1-1.9-0.1-2.8-0.3L57,56.9l12,1.2L85.6,59.7z M64.9,71.6c-0.6-1.8-1-3.1-0.8-4.7c0.3-2.5,2.7-4.6,5.3-4.6h0.1   c2.6,0,5,2.1,5.3,4.6c0.2,1.6-0.1,2.9-0.8,4.7c-0.4,1.1-0.5,2-0.4,2.7c-1.4,1.2-2.8,1.8-4.2,1.8c-1.9,0-3.5-1.2-4.2-1.8   C65.3,73.6,65.3,72.7,64.9,71.6z M56.6,84.1c0-1.4,0.1-2.4,0.6-3.2c0.9-1.4,2.7-2.2,4.4-3c0.6-0.3,1.2-0.5,1.7-0.8   c0.2-0.1,0.5-0.3,0.7-0.5c1.1,0.9,3,2,5.3,2.1c0.1,0,0.1,0,0.2,0c1.9,0,3.7-0.7,5.3-2.1c0.2,0.2,0.5,0.3,0.7,0.5   c0.3,0.1,0.5,0.3,0.8,0.4c-5.2,4.9-12.1,7.8-19.7,8L56.6,84.1z M15.4,60.6c-0.8,0-1.6-0.3-2.1-0.8c-0.6-0.5-1-1.2-1.1-1.9   c-0.1-0.6,0-1.1,0.2-1.3c0-0.1,0.1-0.1,0.1-0.2l11.4-13c0.1,0.1,0.1,0.2,0.2,0.3c0.1,0.1,0.2,0.2,0.3,0.3c0.3,0.4,0.7,0.8,1,1.2   c0.1,0.1,0.1,0.1,0.2,0.2c0,0,0.1,0.1,0.1,0.1c0.2,0.2,0.5,0.4,0.7,0.7c0.2,0.2,0.5,0.4,0.7,0.6c0.1,0.1,0.2,0.2,0.3,0.3   c0,0,0,0,0,0c0.1,0.1,0.3,0.2,0.4,0.3l-0.8,0.9l-1.7,2l-1.5,1.7l-7.3,8.4C16.4,60.4,16,60.6,15.4,60.6z M26.5,20.4   c3-3.4,7.1-5.5,11.7-5.8c0.4,0,0.8,0,1.2,0c6.3,0,11.8,3.5,14.8,8.7c0.2,0.4,0.4,0.8,0.6,1.2c0.2,0.4,0.4,0.8,0.5,1.2   c0.5,1.5,0.9,3.1,1,4.7c0.5,6.9-3.2,13.1-8.9,16.2c-0.4,0.2-0.8,0.4-1.2,0.6c-0.4,0.2-0.9,0.4-1.3,0.5c0,0,0,0,0,0   c-1.4,0.5-2.8,0.8-4.3,0.9c-0.4,0-0.8,0-1.2,0c-3.2,0-6.3-0.9-9-2.6c-0.5-0.3-1.1-0.7-1.6-1.1c-0.2-0.1-0.3-0.3-0.5-0.4   c-0.3-0.3-0.7-0.6-1-0.9c-0.3-0.3-0.6-0.7-0.9-1c-0.5-0.6-1-1.2-1.4-1.8c0,0,0,0,0,0c-1.5-2.4-2.4-5.1-2.6-7.9   C22.1,28.3,23.6,23.9,26.5,20.4z M85,48.3c0.6,2.4,0.9,4.8,0.9,7.3c0,0.5,0,1.1,0,1.7L83.1,57v-0.4c0-1.5,0-3.1-1-4.6   c-1.3-2-3.5-3-5.4-3.9c-0.5-0.3-1.1-0.5-1.5-0.8c-0.6-0.3-1-0.7-0.4-2.4c0.6-1.7,1.1-3.5,0.9-5.8c-0.4-3.8-3.9-6.8-7.8-6.8h-0.1   c-3.9,0-7.4,3.1-7.8,6.8c-0.2,2.3,0.3,4.1,0.9,5.8c0.6,1.7,0.2,2.1-0.4,2.4c-0.5,0.3-1,0.5-1.5,0.8c-1.9,0.9-4.1,1.9-5.4,3.8   l-4.1-3.5c6.1-3.7,9.9-10.5,9.4-18.1c-0.1-1.5-0.4-3-0.9-4.5C70.9,26.6,81.8,35.6,85,48.3z M35.7,66.3c-0.6-1.8-1-3.1-0.8-4.7   c0.3-2.5,2.7-4.6,5.3-4.6h0.1c2.6,0,5,2.1,5.3,4.6c0.2,1.6-0.1,2.9-0.8,4.7c-0.4,1.1-0.5,2-0.4,2.7c-1.4,1.2-2.8,1.8-4.2,1.8   c-1.9,0-3.5-1.2-4.2-1.8C36.2,68.3,36.1,67.4,35.7,66.3z M56.5,54.4l-1-0.9c0-0.1,0.1-0.1,0.1-0.2c0.9-1.4,2.7-2.2,4.4-3   c0.6-0.3,1.2-0.5,1.7-0.8c0.2-0.1,0.5-0.3,0.7-0.5c1.1,0.9,3,2,5.3,2.1c0.1,0,0.1,0,0.2,0c1.9,0,3.7-0.7,5.3-2.1   c0.2,0.2,0.5,0.3,0.7,0.5c0.5,0.3,1.1,0.5,1.7,0.8c1.7,0.8,3.5,1.6,4.4,3c0.5,0.8,0.6,1.8,0.6,3.2v0.2l-2.5-0.2L56.5,54.4z    M72.3,44.1c-0.4,1.1-0.5,2-0.4,2.7c-1.4,1.2-2.8,1.8-4.2,1.8c-1.9,0-3.5-1.2-4.2-1.8c0.1-0.7,0-1.6-0.4-2.7   c-0.6-1.8-1-3.1-0.8-4.7c0.3-2.5,2.7-4.6,5.3-4.6h0.1c2.6,0,5,2.1,5.3,4.6C73.3,41,73,42.3,72.3,44.1z M26.2,52.9l3.7-4.2   c2.9,1.6,6.1,2.5,9.4,2.5c0.5,0,0.9,0,1.4,0c2.2-0.2,4.4-0.7,6.3-1.5l7.5,6.5l-2.6,12.7l-0.5,2.7c-0.8-0.4-1.6-0.8-2.4-1.2   c-0.5-0.3-1.1-0.5-1.5-0.8c-0.6-0.3-1-0.7-0.4-2.4c0.6-1.7,1.1-3.5,0.9-5.8c-0.4-3.8-3.9-6.8-7.8-6.8h-0.1c-3.9,0-7.4,3.1-7.8,6.8   c-0.2,2.3,0.3,4.1,0.9,5.8c0.6,1.7,0.2,2.1-0.4,2.4c-0.5,0.3-1,0.5-1.5,0.8c-0.3,0.2-0.7,0.3-1.1,0.5c-2.7-4.5-4.2-9.7-4.2-15.2   C26.1,54.7,26.2,53.8,26.2,52.9z M32.5,72.5c0.6-0.3,1.2-0.5,1.7-0.8c0.2-0.1,0.5-0.3,0.7-0.5c1.1,0.9,3,2,5.3,2.1   c0.1,0,0.1,0,0.2,0c1.9,0,3.7-0.7,5.3-2.1c0.2,0.2,0.5,0.3,0.7,0.5c0.5,0.3,1.1,0.5,1.7,0.8c1,0.5,2,1,2.9,1.6l-2.1,10.5   c-7.1-1.7-13.1-6-17.2-11.7C32,72.7,32.2,72.6,32.5,72.5z"></path><path d="M28,39.3c0.3,0.4,0.5,0.7,0.8,1.1c0.3,0.3,0.6,0.7,0.9,1c2.5,2.5,6,4,9.7,4c0,0,0,0,0,0c0.8,0,1.7-0.1,2.5-0.2h0   c0.5-0.1,1-0.2,1.5-0.4c0.5-0.1,0.9-0.3,1.4-0.5c0.5-0.2,1.1-0.5,1.6-0.8c6.1-3.6,8.4-11.2,5.6-17.5c-0.2-0.4-0.4-0.8-0.6-1.2   c0,0,0-0.1-0.1-0.1c-0.2-0.4-0.4-0.7-0.7-1c-1.1-1.5-2.4-2.8-4-3.8c-1.7-1.1-3.7-1.7-5.8-1.9c-2.9-0.3-5.8,0.3-8.3,1.8   c-3.2,1.9-5.4,4.8-6.4,8.4c-0.9,3.5-0.4,7.2,1.4,10.4C27.7,38.8,27.9,39,28,39.3z M28.5,28.8c0.8-2.9,2.6-5.3,5.2-6.8   c1.7-1,3.7-1.5,5.7-1.5c0.4,0,0.8,0,1.2,0.1c1.7,0.2,3.3,0.7,4.7,1.6c1,0.6,1.8,1.4,2.6,2.2c0.3,0.3,0.6,0.7,0.8,1.1   c0.1,0.2,0.3,0.4,0.4,0.6c0.1,0.2,0.2,0.3,0.3,0.5c2.7,5.3,0.9,11.8-4.3,14.9c-0.8,0.5-1.6,0.8-2.5,1.1c-0.5,0.1-1,0.3-1.5,0.3   c-0.5,0.1-1.1,0.1-1.7,0.1c0,0-0.1,0-0.1,0c-3.2,0-6.1-1.4-8.2-3.7c-0.3-0.3-0.6-0.7-0.8-1c-0.2-0.3-0.4-0.5-0.5-0.8   c-0.1-0.1-0.1-0.2-0.2-0.3C28.2,34.4,27.8,31.5,28.5,28.8z"></path><path d="M43.1,39.2c0.2,0,0.4-0.1,0.6-0.2c2.5-1.5,4.1-4.1,4.2-7.1c0-0.8-0.1-1.5-0.2-2.3c-0.2-0.7-0.8-1.1-1.5-0.9   c-0.7,0.2-1.1,0.8-0.9,1.5c0.1,0.5,0.2,1.1,0.2,1.6c0,0.2,0,0.5-0.1,0.7c-0.2,1-0.6,2-1.2,2.8c-0.5,0.6-1,1.1-1.7,1.5   c-0.6,0.3-0.8,1.1-0.4,1.7C42.3,39,42.7,39.2,43.1,39.2z"></path></g></svg>