<svg xmlns="http://www.w3.org/2000/svg" xmlns:xlink="http://www.w3.org/1999/xlink" version="1.1" x="0px" y="0px" viewBox="0 0 100 100" enable-background="new 0 0 100 100" xml:space="preserve"><circle fill="none" cx="49.767" cy="73.536" r="1.846"></circle><path d="M94.436,12.885H50.555h-1.496H5.177c-1.563,0-2.91,1.189-2.91,2.752V69.73v0.189v5.012v0.314  c0,1.563,1.347,2.877,2.91,2.877h35.146c-0.041,0.896-0.321,4.753-2.155,6.623c-1.445,1.473-3.454,2.854-2.669,3.563  c0.19,0.436,1.091,0.688,3.14,0.688c4.52,0,9.416,0,11.208,0c0.453,0,0.708,0,0.708,0c1.791,0,6.688,0,11.207,0  c2.334,0,3.149-0.382,3.157-0.953h-0.08v-0.188h-0.082c-0.104-0.77-1.661-1.908-2.84-3.106c-1.834-1.87-2.112-5.726-2.153-6.623  h34.674c1.563,0,2.83-1.313,2.83-2.877v-0.315v-5.011v-0.19V15.639C97.268,14.074,95.998,12.885,94.436,12.885z M49.767,75.382  c-1.021,0-1.846-0.825-1.846-1.846s0.826-1.847,1.846-1.847s1.846,0.826,1.846,1.847S50.786,75.382,49.767,75.382z M93.26,65.727  H6.274V16.702H93.26V65.727h0.002H93.26z"></path><path d="M49.508,23.593c-3.1,0.054-5.715,0.788-8.433,2.357c-4.078,2.354-6.994,6.154-8.213,10.701  c-1.186,4.426-0.625,9.044,1.577,13.046l13.622-7.867l1.447-0.835V23.593z"></path><path d="M41.071,56.474c2.679,1.547,5.721,2.365,8.796,2.365c6.159,0,11.905-3.244,15.088-8.49L53.631,43.81l-3.748-2.165  l-15.07,8.704C36.395,52.978,38.392,54.93,41.071,56.474z"></path><path d="M67.508,41.212c0-9.592-7.704-17.419-17.25-17.619v17.403l15.073,8.704C66.834,46.988,67.508,44.354,67.508,41.212z"></path></svg>