<svg xmlns="http://www.w3.org/2000/svg" xmlns:xlink="http://www.w3.org/1999/xlink" version="1.1" x="0px" y="0px" viewBox="0 0 64 64" enable-background="new 0 0 64 64" xml:space="preserve"><g display="none"><rect x="-102.118" y="-250.113" display="inline" fill="#000000" width="824.576" height="414.113"></rect></g><g display="none"><circle display="inline" fill="#000000" cx="31.958" cy="31.953" r="32"></circle><polyline display="inline" fill="#000000" points="50.658,51.123 50.658,11.01 16.681,11.01 16.681,56.314 45.467,56.314    45.467,56.314 50.658,51.123  "></polyline><polygon display="inline" fill="#000000" points="43.764,54.62 14.958,54.62 14.958,9.286 48.958,9.286 48.958,49.425  "></polygon><rect x="20.084" y="14.621" display="inline" fill="#000000" width="23.68" height="2.93"></rect><line display="inline" fill="#000000" stroke="#E0E0E0" stroke-miterlimit="10" x1="20.126" y1="20.833" x2="43.874" y2="20.833"></line><line display="inline" fill="#000000" stroke="#E0E0E0" stroke-miterlimit="10" x1="20.126" y1="23.318" x2="43.874" y2="23.318"></line><line display="inline" fill="#000000" stroke="#E0E0E0" stroke-miterlimit="10" x1="20.126" y1="25.803" x2="43.874" y2="25.803"></line><line display="inline" fill="#000000" stroke="#E0E0E0" stroke-miterlimit="10" x1="20.126" y1="28.288" x2="43.874" y2="28.288"></line><line display="inline" fill="#000000" stroke="#E0E0E0" stroke-miterlimit="10" x1="20.126" y1="30.772" x2="43.874" y2="30.772"></line><line display="inline" fill="#000000" stroke="#E0E0E0" stroke-miterlimit="10" x1="20.126" y1="33.257" x2="43.874" y2="33.257"></line><line display="inline" fill="#000000" stroke="#E0E0E0" stroke-miterlimit="10" x1="20.126" y1="35.742" x2="43.874" y2="35.742"></line><line display="inline" fill="#000000" stroke="#E0E0E0" stroke-miterlimit="10" x1="20.126" y1="38.227" x2="43.874" y2="38.227"></line><line display="inline" fill="#000000" stroke="#E0E0E0" stroke-miterlimit="10" x1="20.126" y1="40.711" x2="43.874" y2="40.711"></line><line display="inline" fill="#000000" stroke="#E0E0E0" stroke-miterlimit="10" x1="26.518" y1="47.188" x2="43.874" y2="47.188"></line><line display="inline" fill="#000000" stroke="#DB2B42" stroke-miterlimit="10" x1="20.576" y1="44.443" x2="23.883" y2="47.75"></line><line display="inline" fill="#000000" stroke="#DB2B42" stroke-miterlimit="10" x1="20.576" y1="47.75" x2="23.883" y2="44.443"></line><polygon display="inline" fill="#000000" points="43.764,54.62 43.764,49.425 48.958,49.425  "></polygon></g><g display="none"><circle display="inline" fill="#000000" cx="31.958" cy="31.953" r="32"></circle><polyline display="inline" points="50.658,51.123 50.658,11.01 16.681,11.01 16.681,56.314 45.467,56.314 45.467,56.314    50.658,51.123  "></polyline><polygon display="inline" fill="#000000" points="43.764,54.62 14.958,54.62 14.958,9.286 48.958,9.286 48.958,49.425  "></polygon><rect x="20.084" y="14.621" display="inline" fill="#000000" width="23.68" height="2.93"></rect><line display="inline" fill="#000000" stroke="#E0E0E0" stroke-miterlimit="10" x1="20.126" y1="20.833" x2="43.874" y2="20.833"></line><line display="inline" fill="#000000" stroke="#E0E0E0" stroke-miterlimit="10" x1="20.126" y1="23.318" x2="43.874" y2="23.318"></line><line display="inline" fill="#000000" stroke="#E0E0E0" stroke-miterlimit="10" x1="20.126" y1="25.803" x2="43.874" y2="25.803"></line><line display="inline" fill="#000000" stroke="#E0E0E0" stroke-miterlimit="10" x1="20.126" y1="28.288" x2="43.874" y2="28.288"></line><line display="inline" fill="#000000" stroke="#E0E0E0" stroke-miterlimit="10" x1="20.126" y1="30.772" x2="43.874" y2="30.772"></line><line display="inline" fill="#000000" stroke="#E0E0E0" stroke-miterlimit="10" x1="20.126" y1="33.257" x2="43.874" y2="33.257"></line><line display="inline" fill="#000000" stroke="#E0E0E0" stroke-miterlimit="10" x1="20.126" y1="35.742" x2="43.874" y2="35.742"></line><line display="inline" fill="#000000" stroke="#E0E0E0" stroke-miterlimit="10" x1="20.126" y1="38.227" x2="43.874" y2="38.227"></line><line display="inline" fill="#000000" stroke="#E0E0E0" stroke-miterlimit="10" x1="20.126" y1="40.711" x2="43.874" y2="40.711"></line><line display="inline" fill="#000000" stroke="#E0E0E0" stroke-miterlimit="10" x1="26.518" y1="47.188" x2="43.874" y2="47.188"></line><line display="inline" fill="none" stroke="#000000" stroke-miterlimit="10" x1="20.576" y1="44.443" x2="23.883" y2="47.75"></line><line display="inline" fill="none" stroke="#000000" stroke-miterlimit="10" x1="20.576" y1="47.75" x2="23.883" y2="44.443"></line><polygon display="inline" fill="#000000" points="43.764,54.62 43.764,49.425 48.958,49.425  "></polygon></g><g display="none"><polygon display="inline" fill="#000000" points="36.996,63.995 -3.671,63.995 -3.671,-0.005 44.329,-0.005 44.329,56.661  "></polygon><rect x="3.566" y="7.526" display="inline" fill="#000000" width="33.43" height="4.137"></rect><rect x="3.624" y="15.59" display="inline" fill="#000000" width="33.527" height="1.412"></rect><rect x="3.624" y="19.099" display="inline" fill="#000000" width="33.527" height="1.412"></rect><rect x="3.624" y="22.606" display="inline" fill="#000000" width="33.527" height="1.412"></rect><rect x="3.624" y="26.113" display="inline" fill="#000000" width="33.527" height="1.412"></rect><rect x="3.624" y="29.622" display="inline" fill="#000000" width="33.527" height="1.412"></rect><rect x="3.624" y="33.129" display="inline" fill="#000000" width="33.527" height="1.412"></rect><rect x="3.624" y="36.638" display="inline" fill="#000000" width="33.527" height="1.412"></rect><rect x="3.624" y="40.146" display="inline" fill="#000000" width="33.527" height="1.412"></rect><rect x="3.624" y="43.653" display="inline" fill="#000000" width="33.527" height="1.412"></rect><rect x="12.649" y="52.796" display="inline" fill="#000000" width="24.502" height="1.412"></rect><rect x="5.888" y="48.661" transform="matrix(0.7071 -0.7071 0.7071 0.7071 -34.8115 19.882)" display="inline" fill="#000000" width="1.412" height="6.602"></rect><rect x="3.293" y="51.256" transform="matrix(0.7071 -0.7071 0.7071 0.7071 -34.8115 19.882)" display="inline" fill="#000000" width="6.602" height="1.412"></rect><polygon display="inline" fill="#000000" points="36.996,63.995 36.996,56.661 44.329,56.661  "></polygon></g><g><path d="M48.667,7.531h-33.43v5.172h33.43V7.531z M47.267,11.303h-30.63V8.931h30.63V11.303z"></path><path d="M8,64h40.667L56,56.667V0H8V64z M48.879,61.807v-4.929h4.929L48.879,61.807z M9.4,1.4h45.2v54.079h-7.121V62.6H9.4V1.4z"></path><polygon points="20.104,48.749 18.264,50.588 16.425,48.749 15.435,49.739 17.274,51.579 15.435,53.418 16.425,54.408    18.264,52.569 20.104,54.408 21.094,53.418 19.255,51.579 21.094,49.739  "></polygon><rect x="24.278" y="50.911" width="24.486" height="1.4"></rect><rect x="15.237" y="43.439" width="33.527" height="1.4"></rect><rect x="15.237" y="39.704" width="33.527" height="1.4"></rect><rect x="15.237" y="32.232" width="33.527" height="1.4"></rect><rect x="15.237" y="35.968" width="33.527" height="1.4"></rect><rect x="15.237" y="28.496" width="33.527" height="1.4"></rect><rect x="15.237" y="24.761" width="33.586" height="1.4"></rect><rect x="15.237" y="21.024" width="33.586" height="1.4"></rect><rect x="15.237" y="17.289" width="33.586" height="1.4"></rect></g><g display="none"><circle display="inline" fill="#000000" cx="32" cy="32" r="32"></circle><polygon display="inline" fill="#000000" points="8.75,0.75 55.513,0.75 55.513,56.087 47.479,63.513 8.75,63.513  "></polygon><polygon display="inline" fill="#000000" points="48.344,56.156 48.375,60.6 11.405,60.6 11.405,3.396 52.6,3.396 52.6,56.156  "></polygon><path display="inline" d="M54.6,1.4v54.687L48.087,62.6H9.4V1.4H54.6 M56,0H8v64h40.667L56,56.667V0L56,0z"></path><polygon display="inline" points="48.879,63.513 47.479,63.513 47.479,55.479 55.513,55.479 55.513,56.879 48.879,56.879  "></polygon><path display="inline" d="M47.267,8.931v2.372h-30.63V8.931H47.267 M48.667,7.531h-33.43v5.172h33.43V7.531L48.667,7.531z"></path><rect x="17.564" y="48.277" transform="matrix(0.7071 -0.7071 0.7071 0.7071 -31.122 28.022)" display="inline" width="1.4" height="6.603"></rect><rect x="14.963" y="50.878" transform="matrix(0.7071 -0.7071 0.7071 0.7071 -31.122 28.022)" display="inline" width="6.603" height="1.4"></rect><rect x="24.278" y="50.911" display="inline" width="24.486" height="1.4"></rect><rect x="15.237" y="43.439" display="inline" width="33.527" height="1.4"></rect><rect x="15.237" y="39.704" display="inline" width="33.527" height="1.4"></rect><rect x="15.237" y="32.232" display="inline" width="33.527" height="1.4"></rect><rect x="15.237" y="35.968" display="inline" width="33.527" height="1.4"></rect><rect x="15.237" y="28.496" display="inline" width="33.527" height="1.4"></rect><rect x="15.237" y="24.761" display="inline" width="33.586" height="1.4"></rect><rect x="15.237" y="21.024" display="inline" width="33.586" height="1.4"></rect><rect x="15.237" y="17.289" display="inline" width="33.586" height="1.4"></rect></g></svg>