<svg xmlns="http://www.w3.org/2000/svg" xmlns:xlink="http://www.w3.org/1999/xlink" version="1.1" x="0px" y="0px" viewBox="0 0 100 100" enable-background="new 0 0 100 100" xml:space="preserve"><g><path d="M92,5c-1.656,0-3,1.343-3,3v19.4H11V8c0-1.657-1.343-3-3-3S5,6.343,5,8v84c0,1.656,1.343,3,3,3s3-1.344,3-3v-1h78v1   c0,1.656,1.344,3,3,3s3-1.344,3-3V8C95,6.343,93.656,5,92,5z M89,33.4v22.8H11V33.4H89z M11,85V62.2h78V85H11z"></path><rect x="16.669" y="7" width="18" height="18"></rect><rect x="41" y="7" width="18" height="18"></rect><rect x="16.669" y="36" width="18" height="18"></rect><rect x="41" y="36" width="18" height="18"></rect><rect x="65.33" y="35.8" width="18" height="18"></rect><rect x="16.669" y="64.599" width="18" height="18"></rect><rect x="41" y="64.599" width="18" height="18"></rect></g></svg>