<svg xmlns="http://www.w3.org/2000/svg" xmlns:xlink="http://www.w3.org/1999/xlink" version="1.1" x="0px" y="0px" viewBox="0 0 100 100" enable-background="new 0 0 100 100" xml:space="preserve"><g><path d="M23.814,18H5.186C2.322,18,0,20.322,0,23.186v18.629C0,44.678,2.322,47,5.186,47h18.628C26.678,47,29,44.678,29,41.814   V23.186C29,20.322,26.678,18,23.814,18z"></path><path d="M59.814,18H41.186C38.322,18,36,20.322,36,23.186v18.629C36,44.678,38.322,47,41.186,47h18.629   C62.679,47,65,44.678,65,41.814V23.186C65,20.322,62.679,18,59.814,18z"></path><path d="M94.814,18H76.186C73.321,18,71,20.322,71,23.186v18.629C71,44.678,73.321,47,76.186,47h18.629   c2.864,0,5.186-2.322,5.186-5.186V23.186C100,20.322,97.679,18,94.814,18z"></path><path d="M23.814,55H5.186C2.322,55,0,57.321,0,60.186v18.629C0,81.679,2.322,84,5.186,84h18.628C26.678,84,29,81.679,29,78.814   V60.186C29,57.321,26.678,55,23.814,55z"></path><path d="M59.814,55H41.186C38.322,55,36,57.321,36,60.186v18.629C36,81.679,38.322,84,41.186,84h18.629   C62.679,84,65,81.679,65,78.814V60.186C65,57.321,62.679,55,59.814,55z"></path><path d="M94.814,55H76.186C73.321,55,71,57.321,71,60.186v18.629C71,81.679,73.321,84,76.186,84h18.629   c2.864,0,5.186-2.321,5.186-5.186V60.186C100,57.321,97.679,55,94.814,55z"></path></g></svg>