<svg xmlns="http://www.w3.org/2000/svg" viewBox="0 0 46 44" x="0px" y="0px"><title>48_px - Regular - 70 Basic Icons</title><g><path d="M2,8H8v2a2,2,0,0,0,2,2H22a2,2,0,0,0,2-2V8H44a2,2,0,0,0,0-4H24V2a2,2,0,0,0-2-2H10A2,2,0,0,0,8,2V4H2A2,2,0,0,0,2,8ZM12,4h8V8H12V4Z"></path><path d="M44,20H38V18a2,2,0,0,0-2-2H24a2,2,0,0,0-2,2v2H2a2,2,0,0,0,0,4H22v2a2,2,0,0,0,2,2H36a2,2,0,0,0,2-2V24h6A2,2,0,0,0,44,20ZM34,24H26V20h8v4Z"></path><path d="M44,36H24V34a2,2,0,0,0-2-2H10a2,2,0,0,0-2,2v2H2a2,2,0,0,0,0,4H8v2a2,2,0,0,0,2,2H22a2,2,0,0,0,2-2V40H44A2,2,0,0,0,44,36ZM20,40H12V36h8v4Z"></path></g></svg>